<svg width="48" height="53" viewBox="0 0 48 53" fill="none" xmlns="http://www.w3.org/2000/svg">
<g clip-path="url(#clip0_259_577)">
<path d="M22.0321 4.61924L23.5815 1.03976C23.6255 0.938369 23.6885 0.846201 23.7673 0.768199C24.0205 0.517438 24.4025 0.444611 24.7317 0.584314L27.4349 1.73136C27.728 1.85572 28.0682 1.73235 28.2107 1.45001C28.3653 1.14387 28.7481 1.02918 29.0482 1.199L31.9583 2.8455C32.1485 2.95303 32.2657 3.15313 32.2657 3.36984C32.2657 3.48906 32.23 3.6056 32.1632 3.70481L31.1885 5.15252L29.1406 7.68708M22.0321 4.61924L18.5791 7.54966C18.4702 7.64213 18.5362 7.81891 18.6797 7.81891C18.7507 7.81891 18.8125 7.86671 18.8297 7.93484L19.1298 9.12337C19.2617 9.64545 19.6325 10.0765 20.1322 10.2885L21.3628 10.8107M22.0321 4.61924C22.377 4.96069 22.8448 5.15252 23.3325 5.15252H24.3472C25.2909 5.15252 26.2082 5.46067 26.9571 6.02921L27.2071 6.21907M29.1406 7.68708L27.2071 6.21907M29.1406 7.68708C29.0716 7.77242 29.034 7.87844 29.034 7.98772V8.47852C29.034 9.07041 28.7526 9.62777 28.2743 9.98295L27.6097 10.4765C27.1307 10.8321 26.5689 11.0625 25.9762 11.1464L24.9906 11.2858C23.7601 11.4598 22.5051 11.2955 21.3628 10.8107M21.3628 10.8107L21.4935 10.4853L21.9388 9.60371C22.3434 8.80237 23.053 8.193 23.9116 7.90966C24.0946 7.84927 24.2721 7.77363 24.4422 7.68355L27.2071 6.21907" stroke="black" stroke-width="1.5" stroke-linecap="round"/>
<path d="M24.7634 5.13839L27.9951 1.93872" stroke="black" stroke-width="1.5" stroke-linecap="round"/>
<path d="M19.9079 13.668H21.5237M21.5237 13.668H23.6782M21.5237 13.668V20.0673M27.987 13.668H26.3713M26.3713 13.668V20.0673M26.3713 13.668H23.6782M23.6782 13.668V19.534" stroke="black" stroke-width="1.5" stroke-linecap="round"/>
<path d="M20.9761 37.1335L21.3768 35.5461C21.4658 35.194 21.4245 34.8219 21.2606 34.4973C21.0784 34.1365 20.7589 33.8622 20.3724 33.7346L20.1682 33.6672C19.6509 33.4965 19.0862 33.5362 18.5985 33.7777L18.283 33.9338M18.283 33.9338L17.7444 35.0005L16.6672 36.6003L16.1286 37.6668M18.283 33.9338L17.8861 33.1477C17.7922 32.962 17.6687 32.7924 17.5204 32.6455C16.9975 32.1278 16.224 31.947 15.5223 32.1785L15.4979 32.1867C15.2042 32.2835 14.9374 32.4469 14.7186 32.6635L13.9741 33.4005M16.1286 37.6668L17.2058 38.7333M16.1286 37.6668L15.0513 37.1335L14.4848 36.8531C14.1533 36.6889 13.8846 36.4229 13.7189 36.0946L13.5339 35.7284C13.4704 35.6028 13.4544 35.4587 13.4889 35.3225M13.9741 33.4005L13.7411 32.9392C13.5454 32.5517 13.2023 32.257 12.7871 32.1201C12.1943 31.9243 11.5405 32.0771 11.0986 32.5147L10.899 32.7123C10.7953 32.815 10.709 32.9335 10.6435 33.0633C10.3809 33.5832 10.4839 34.2111 10.899 34.6221L11.0831 34.8043C11.2142 34.9342 11.3656 35.0423 11.5315 35.1244L11.6311 35.1737C12.1029 35.4072 12.6389 35.4812 13.1572 35.3844L13.4889 35.3225M13.9741 33.4005L13.4889 35.3225M17.2058 38.7333H18.8216H19.3603H17.2058Z" stroke="black" stroke-width="1.5" stroke-linecap="round"/>
<path d="M20.983 37.1443L20.4443 37.6775" stroke="black" stroke-width="1.5" stroke-linecap="round"/>
<path d="M8.02917 7.80054H10.7222M10.7222 7.80054L6.41333 21.6658M10.7222 7.80054H11.7994M18.8014 7.80054H11.7994M11.7994 7.80054L16.6469 22.1991" stroke="black" stroke-width="1.5" stroke-linecap="round"/>
<path d="M39.8009 7.80054H37.1079M37.1079 7.80054L41.4167 21.6658M37.1079 7.80054H36.0307M29.0288 7.80054H36.0307M36.0307 7.80054L31.1832 22.1991" stroke="black" stroke-width="1.5" stroke-linecap="round"/>
<path d="M26.8796 21.7043H22.0321M22.0321 21.7043H18.2619M22.0321 21.7043L19.0226 25.1806C18.8792 25.3463 18.8004 25.5572 18.8004 25.7753V26.8889C18.8004 26.9871 18.8164 27.0846 18.8478 27.1779L19.1287 28.0122C19.2543 28.3853 19.6071 28.637 20.0044 28.637H20.5725C20.8173 28.637 21.0521 28.5407 21.2252 28.3693L22.5061 27.1012C22.549 27.0586 22.5962 27.0203 22.6467 26.987L23.9539 26.1241C24.1057 26.0241 24.2838 25.9706 24.466 25.9706H26.6282C26.7927 25.9706 26.9544 26.0141 27.0963 26.0968L36.036 31.3034M36.036 31.3034L36.8392 30.1106C37.0103 29.8563 37.2985 29.7036 37.6072 29.7036H41.9606M36.036 31.3034L37.3096 32.9848C37.5192 33.2617 37.553 33.6321 37.3967 33.9416L37.2507 34.2306C37.1614 34.4074 37.0166 34.5509 36.8379 34.6393L36.2309 34.9398C36.1027 35.0034 35.9613 35.0364 35.818 35.0364H34.7204C34.5252 35.0364 34.3351 34.9751 34.1774 34.8616L33.6795 34.5031M33.6795 34.5031L28.4954 30.7701M33.6795 34.5031V35.5924C33.6795 35.9096 33.5132 36.2042 33.2403 36.3705L32.8043 36.6362L32.2062 36.9323C31.9099 37.0789 31.557 37.0572 31.2813 36.8753L30.1112 36.103M30.1112 36.103L26.8796 33.9699M30.1112 36.103V37.3243C30.1112 37.5667 30.014 37.799 29.841 37.9704L29.3044 38.5016C29.1312 38.673 28.8964 38.7693 28.6516 38.7693H28.4954H28.1747C28.0314 38.7693 27.89 38.7363 27.7619 38.6728L26.341 37.9694M26.341 37.9694L24.7252 37.1695M26.341 37.9694V38.7693V39.2712C26.341 39.6173 26.1435 39.9337 25.8308 40.0885L25.2638 40.3692L24.5994 40.6981C24.3396 40.8267 24.0336 40.8267 23.7737 40.6981L23.1093 40.3692M23.1093 40.3692V39.836V38.6829C23.1093 38.2635 22.8211 37.898 22.4102 37.7964L22.0321 37.7028L21.0852 37.3903C20.6903 37.26 20.2561 37.4074 20.0252 37.7503L19.5894 38.3975C19.4314 38.6321 19.3917 38.9258 19.4817 39.1932L19.7568 40.0101C19.8341 40.24 20.0006 40.43 20.2196 40.5384L20.76 40.8059C20.8882 40.8695 21.0295 40.9025 21.1728 40.9025H21.7794C21.9449 40.9025 22.1072 40.8585 22.2496 40.775L22.5122 40.6211C22.5512 40.5983 22.5917 40.5783 22.6336 40.5614L23.1093 40.3692Z" stroke="black" stroke-width="1.5" stroke-linecap="round"/>
<path d="M11.2707 32.3544L11.4862 31.9277C11.6896 31.5249 11.6896 31.0508 11.4862 30.6479C11.3463 30.371 11.1195 30.1464 10.8398 30.0079L10.6402 29.9091C10.3464 29.7637 10.0225 29.688 9.69414 29.688H8.03908H5.88464" stroke="black" stroke-width="1.5" stroke-linecap="round"/>
<path d="M16.6568 23.804H6.61784C6.49324 23.804 6.37374 23.853 6.28563 23.9402C6.0757 24.148 6.10452 24.4927 6.34611 24.6636L8.84971 26.4342C9.37338 26.8045 10.0009 27.0036 10.6444 27.0036H12.8272C13.213 27.0036 13.5862 26.867 13.879 26.6184L16.7865 24.151C16.9269 24.0318 16.8418 23.804 16.6568 23.804Z" stroke="black" stroke-width="1.5" stroke-linecap="round"/>
<path d="M41.4569 23.804H31.4179C31.2933 23.804 31.1738 23.853 31.0857 23.9402C30.8758 24.148 30.9045 24.4927 31.1461 24.6636L33.6498 26.4342C34.1734 26.8045 34.8009 27.0036 35.4444 27.0036H37.6273C38.0131 27.0036 38.3862 26.867 38.6791 26.6184L41.5866 24.151C41.727 24.0318 41.6419 23.804 41.4569 23.804Z" stroke="black" stroke-width="1.5" stroke-linecap="round"/>
<path d="M29.3079 21.4185H28.7693V21.9518H29.3079V21.4185Z" stroke="black" stroke-width="1.5" stroke-linecap="round"/>
<path d="M4.07472 50.4455C3.87039 50.4455 3.64503 50.4173 3.39864 50.3608C3.15225 50.3042 2.9419 50.2269 2.76763 50.1288L2.73157 49.0579L3.20934 49.0311L3.45272 49.7807C3.54888 49.8432 3.66156 49.8922 3.79076 49.928C3.91997 49.9607 4.04618 49.9771 4.16937 49.9771C4.38271 49.9771 4.54497 49.9324 4.65615 49.8432C4.76733 49.754 4.82291 49.6335 4.82291 49.4818C4.82291 49.3211 4.77333 49.1903 4.67418 49.0891C4.57502 48.988 4.44581 48.9033 4.28656 48.8349C4.13031 48.7635 3.96354 48.6936 3.78626 48.6251C3.60897 48.5567 3.44071 48.4749 3.28146 48.3797C3.1252 48.2816 2.99599 48.1551 2.89383 48.0005C2.79467 47.8458 2.74509 47.6465 2.74509 47.4026C2.74509 47.0158 2.90886 46.7021 3.23638 46.461C3.56391 46.2201 3.9966 46.0996 4.53445 46.0996C4.69972 46.0996 4.88302 46.1191 5.08434 46.1577C5.28565 46.1934 5.45393 46.2409 5.58915 46.3004L5.67929 47.3535L5.21054 47.3847L4.97617 46.6708C4.8169 46.5994 4.64564 46.5637 4.46234 46.5637C4.27304 46.5637 4.11378 46.6129 3.98457 46.711C3.85838 46.8061 3.79528 46.9415 3.79528 47.117C3.79528 47.2747 3.84486 47.4041 3.94401 47.5052C4.04618 47.6033 4.17689 47.6896 4.33614 47.764C4.49839 47.8354 4.66967 47.9068 4.84996 47.9782C5.03025 48.0496 5.20002 48.1343 5.35928 48.2324C5.52153 48.3307 5.65375 48.454 5.75591 48.6028C5.85807 48.7516 5.90916 48.9404 5.90916 49.1694C5.90916 49.4164 5.83253 49.6365 5.67929 49.8299C5.52604 50.0202 5.3112 50.1704 5.03476 50.2805C4.76132 50.3905 4.4413 50.4455 4.07472 50.4455ZM7.80236 50.4366C7.48386 50.4366 7.20141 50.3682 6.95501 50.2314C6.71162 50.0915 6.52081 49.9027 6.38259 49.6647C6.24437 49.4238 6.17526 49.1531 6.17526 48.8527C6.17526 48.5225 6.25338 48.2324 6.40964 47.9826C6.56589 47.7297 6.76871 47.5319 7.01811 47.3891C7.27051 47.2463 7.53945 47.1749 7.8249 47.1749C8.24858 47.1749 8.57911 47.3044 8.81649 47.5632C9.05387 47.8219 9.17256 48.161 9.17256 48.5805V48.759H7.04064V48.3752H8.44239L8.32069 48.5582V48.3038C8.32069 48.0807 8.27111 47.9053 8.17195 47.7774C8.0758 47.6494 7.94058 47.5855 7.76631 47.5855C7.59203 47.5855 7.44479 47.6598 7.3246 47.8086C7.20441 47.9543 7.14431 48.1805 7.14431 48.4868V48.6341C7.14431 48.9642 7.23445 49.2304 7.41474 49.4327C7.59804 49.635 7.84142 49.7361 8.14492 49.7361C8.31017 49.7361 8.45891 49.7064 8.59112 49.6469C8.72634 49.5874 8.85705 49.4863 8.98326 49.3435L9.20861 49.5577C9.07339 49.8462 8.88259 50.0648 8.6362 50.2135C8.38981 50.3623 8.11186 50.4366 7.80236 50.4366ZM11.9266 49.7718C11.8515 49.983 11.7178 50.1496 11.5255 50.2716C11.3332 50.3936 11.1184 50.4544 10.881 50.4544C10.5384 50.4544 10.259 50.3578 10.0426 50.1644C9.82929 49.9712 9.72262 49.6797 9.72262 49.2899L9.74515 47.6971H9.24034V47.474L10.5114 46.4834H10.7322L10.7142 47.5096L10.7007 49.2052C10.7007 49.4015 10.7488 49.5413 10.8449 49.6246C10.9441 49.7079 11.0808 49.7494 11.2551 49.7494C11.4324 49.7494 11.5931 49.6871 11.7373 49.5621L11.9266 49.7718ZM10.3717 47.6971V47.2374H11.7328V47.6971H10.3717ZM14.4283 49.7718C14.3532 49.983 14.2194 50.1496 14.0272 50.2716C13.8349 50.3936 13.62 50.4544 13.3827 50.4544C13.0401 50.4544 12.7606 50.3578 12.5443 50.1644C12.3309 49.9712 12.2243 49.6797 12.2243 49.2899L12.2468 47.6971H11.742V47.474L13.0131 46.4834H13.2339L13.2158 47.5096L13.2023 49.2052C13.2023 49.4015 13.2504 49.5413 13.3466 49.6246C13.4458 49.7079 13.5825 49.7494 13.7568 49.7494C13.934 49.7494 14.0948 49.6871 14.2391 49.5621L14.4283 49.7718ZM12.8734 47.6971V47.2374H14.2346V47.6971H12.8734ZM14.3248 50.383L14.3023 50.0396L14.7711 49.928C14.7771 49.8714 14.7831 49.7763 14.7891 49.6424C14.7951 49.5056 14.8011 49.3539 14.8071 49.1874C14.8131 49.0207 14.8161 48.8616 14.8161 48.7099V47.8041C14.8161 47.474 14.8116 47.1542 14.8026 46.8448C14.7966 46.5354 14.7861 46.299 14.7711 46.1354L14.2392 46.064L14.2257 45.7471L15.6365 45.3857L15.8437 45.5152C15.8317 45.7145 15.8227 45.9079 15.8167 46.0952C15.8107 46.2826 15.8062 46.4953 15.8032 46.7332C15.8032 46.9713 15.8032 47.2643 15.8032 47.6123L15.7942 48.6519C15.7942 48.991 15.7957 49.2751 15.7987 49.5041C15.8047 49.7331 15.8122 49.8744 15.8212 49.928L16.2945 50.0396L16.281 50.383H14.3248ZM18.0885 50.4366C17.7701 50.4366 17.4876 50.3682 17.2411 50.2314C16.9978 50.0915 16.8069 49.9027 16.6687 49.6647C16.5306 49.4238 16.4615 49.1531 16.4615 48.8527C16.4615 48.5225 16.5396 48.2324 16.6958 47.9826C16.8521 47.7297 17.0549 47.5319 17.3043 47.3891C17.5567 47.2463 17.8257 47.1749 18.111 47.1749C18.5347 47.1749 18.8653 47.3044 19.1026 47.5632C19.3401 47.8219 19.4587 48.161 19.4587 48.5805V48.759H17.3269V48.3752H18.7286L18.6068 48.5582V48.3038C18.6068 48.0807 18.5573 47.9053 18.4581 47.7774C18.362 47.6494 18.2268 47.5855 18.0525 47.5855C17.8782 47.5855 17.7309 47.6598 17.6108 47.8086C17.4906 47.9543 17.4305 48.1805 17.4305 48.4868V48.6341C17.4305 48.9642 17.5206 49.2304 17.7009 49.4327C17.8842 49.635 18.1276 49.7361 18.4311 49.7361C18.5963 49.7361 18.7451 49.7064 18.8773 49.6469C19.0125 49.5874 19.1433 49.4863 19.2695 49.3435L19.4948 49.5577C19.3596 49.8462 19.1688 50.0648 18.9224 50.2135C18.6759 50.3623 18.398 50.4366 18.0885 50.4366ZM23.1278 50.4322C22.9415 50.4144 22.7296 50.401 22.4923 50.392C22.2549 50.386 22.0761 50.383 21.9559 50.383H19.7744L19.7564 50.0216L20.2206 49.9057C20.2326 49.867 20.2417 49.7376 20.2477 49.5175C20.2567 49.2973 20.2612 49.0565 20.2612 48.7947V47.7729C20.2612 47.5022 20.2567 47.2583 20.2477 47.0412C20.2417 46.821 20.2326 46.6946 20.2206 46.6619L19.7564 46.5459L19.7744 46.1799H21.9064L21.9244 46.5593L21.3249 46.6708C21.3128 46.6946 21.3008 46.8121 21.2888 47.0233C21.2798 47.2315 21.2753 47.4814 21.2753 47.7729V48.7947C21.2753 49.0772 21.2768 49.3033 21.2798 49.4729C21.2858 49.6424 21.2948 49.757 21.3068 49.8164C21.4571 49.8403 21.6494 49.8521 21.8838 49.8521H22.1542C22.2503 49.8521 22.3391 49.8477 22.4202 49.8388C22.5043 49.8299 22.5719 49.8208 22.623 49.8119L23.0331 49.0222L23.4839 49.1249L23.1278 50.4322ZM25.2959 50.4366C24.9594 50.4366 24.6619 50.3697 24.4035 50.2358C24.1451 50.099 23.9422 49.9116 23.795 49.6736C23.6508 49.4327 23.5786 49.1561 23.5786 48.8438C23.5786 48.4898 23.6614 48.1894 23.8266 47.9424C23.9918 47.6926 24.2067 47.5022 24.4711 47.3713C24.7386 47.2404 25.0239 47.1749 25.3275 47.1749C25.649 47.1749 25.9329 47.2434 26.1793 47.3802C26.4258 47.5141 26.6181 47.7015 26.7562 47.9424C26.8944 48.1834 26.9636 48.46 26.9636 48.7724C26.9636 49.0847 26.8884 49.3673 26.7382 49.6201C26.591 49.87 26.3911 50.0693 26.1388 50.218C25.8863 50.3637 25.6055 50.4366 25.2959 50.4366ZM25.368 49.9726C25.5454 49.9726 25.6821 49.8878 25.7782 49.7183C25.8743 49.5488 25.9224 49.3107 25.9224 49.0044C25.9224 48.5909 25.8563 48.2563 25.7241 48.0005C25.5949 47.7446 25.4236 47.6168 25.2103 47.6168C25.0361 47.6168 24.8963 47.7075 24.7911 47.8889C24.689 48.0674 24.6379 48.3142 24.6379 48.6296C24.6379 49.0133 24.707 49.3331 24.8452 49.5888C24.9864 49.8447 25.1607 49.9726 25.368 49.9726ZM28.3926 50.4366C28.1673 50.4366 27.9734 50.3905 27.8112 50.2983C27.6518 50.2031 27.5287 50.0886 27.4416 49.9547C27.3574 49.8179 27.3154 49.6901 27.3154 49.571C27.3154 49.223 27.5377 48.9851 27.9824 48.8571L29.1183 48.5314V48.286C29.1183 48.1343 29.0476 47.999 28.9064 47.8799C28.7682 47.7581 28.6119 47.6971 28.4376 47.6971C28.3595 47.6971 28.304 47.7164 28.2709 47.7551C28.2409 47.7907 28.2228 47.8562 28.2168 47.9513L28.1808 48.4021C27.9373 48.4525 27.7361 48.4451 27.5767 48.3797C27.4205 48.3142 27.3424 48.2057 27.3424 48.054C27.3424 47.9588 27.3905 47.8636 27.4866 47.7685C27.5858 47.6702 27.7089 47.5795 27.8562 47.4963C28.0034 47.41 28.1521 47.3386 28.3024 47.2821C28.4557 47.2256 28.5863 47.1899 28.6946 47.1749C29.1303 47.1749 29.4743 47.2717 29.7267 47.465C29.9821 47.6583 30.1114 47.9201 30.1144 48.2503L30.0918 49.2274C30.0918 49.4774 30.1099 49.6424 30.1459 49.7227L30.6237 49.8075V50.1243L30.1414 50.3251C29.961 50.3995 29.8078 50.4366 29.6817 50.4366C29.4923 50.4366 29.3586 50.3415 29.2805 50.1511L29.1498 49.8208L29.303 49.8477C28.9965 50.2403 28.6931 50.4366 28.3926 50.4366ZM28.7757 49.7807C28.9049 49.7807 29.022 49.7301 29.1273 49.6291V48.9374L28.6629 49.0177C28.4376 49.0475 28.325 49.1575 28.325 49.348C28.325 49.458 28.37 49.5577 28.4602 49.6469C28.5503 49.7361 28.6554 49.7807 28.7757 49.7807ZM30.6238 50.383L30.6013 50.0529L31.0475 49.928C31.0535 49.8953 31.0595 49.8104 31.0655 49.6736C31.0745 49.5338 31.0806 49.3806 31.0836 49.2141L31.0926 48.6697C31.0926 48.521 31.0881 48.3946 31.0791 48.2905C31.07 48.1864 31.055 48.0718 31.034 47.9469L30.5698 47.8488V47.5185L31.8633 47.1884L32.0661 47.3133L32.0256 47.7416L32.0481 47.7505C32.3456 47.3668 32.7016 47.1749 33.1163 47.1749C33.4288 47.1749 33.6888 47.288 33.8961 47.5141C34.1033 47.7401 34.2071 48.057 34.2071 48.4644V49.2052C34.2071 49.3658 34.2101 49.5175 34.2161 49.6602C34.2221 49.8 34.2311 49.8893 34.2431 49.928L34.6894 50.0529L34.6668 50.383H32.8324L32.8144 50.0529L33.2154 49.928C33.2244 49.8566 33.2319 49.751 33.2379 49.6112C33.2471 49.4685 33.2516 49.3346 33.2516 49.2096V48.6207C33.2516 48.35 33.1914 48.1566 33.0712 48.0407C32.9541 47.9216 32.8159 47.8621 32.6565 47.8621C32.4162 47.8621 32.2148 47.9632 32.0526 48.1655V49.2141C32.0526 49.3717 32.0556 49.5204 32.0616 49.6602C32.0676 49.8 32.0766 49.8893 32.0887 49.928L32.5214 50.0529L32.4988 50.383H30.6238ZM36.0056 50.4366C35.7983 50.4366 35.594 50.4143 35.3926 50.3697C35.1943 50.3251 35.0261 50.2671 34.8878 50.1957L34.8517 49.348H35.334L35.4873 49.8655C35.6676 49.9726 35.8568 50.0261 36.0552 50.0261C36.1994 50.0261 36.3091 49.9979 36.3843 49.9413C36.4594 49.8818 36.4969 49.8045 36.4969 49.7094C36.4969 49.6022 36.4549 49.513 36.3706 49.4416C36.2895 49.3673 36.1183 49.281 35.8568 49.1829C35.5053 49.055 35.2589 48.9152 35.1177 48.7635C34.9764 48.6088 34.9058 48.4154 34.9058 48.1834C34.9058 47.8889 35.0396 47.648 35.307 47.4605C35.5774 47.2702 35.9289 47.1749 36.3616 47.1749C36.521 47.1749 36.6802 47.1899 36.8394 47.2196C36.9987 47.2493 37.1309 47.288 37.236 47.3357L37.3172 48.1744H36.8439L36.6862 47.6613C36.6381 47.6346 36.578 47.6123 36.5059 47.5944C36.4368 47.5766 36.3722 47.5677 36.3121 47.5677C36.1709 47.5677 36.0567 47.5988 35.9696 47.6613C35.8824 47.7238 35.8388 47.8056 35.8388 47.9068C35.8388 48.0198 35.8914 48.115 35.9966 48.1923C36.1048 48.2667 36.3001 48.3604 36.5825 48.4735C36.8981 48.5983 37.1234 48.7351 37.2586 48.8839C37.3939 49.0326 37.4615 49.2141 37.4615 49.4283C37.4615 49.7316 37.3263 49.9756 37.0558 50.16C36.7883 50.3444 36.4383 50.4366 36.0056 50.4366ZM38.4983 50.4544C38.309 50.4544 38.1453 50.3905 38.007 50.2627C37.8718 50.1347 37.8042 49.9756 37.8042 49.7852C37.8042 49.5948 37.8718 49.4342 38.007 49.3033C38.1453 49.1694 38.309 49.1025 38.4983 49.1025C38.6936 49.1025 38.8589 49.1694 38.994 49.3033C39.1293 49.4342 39.1969 49.5948 39.1969 49.7852C39.1969 49.9756 39.1293 50.1347 38.994 50.2627C38.8589 50.3905 38.6936 50.4544 38.4983 50.4544ZM39.4721 50.383L39.4539 50.0396L39.9318 49.928C39.9348 49.8983 39.9393 49.8149 39.9453 49.6781C39.9543 49.5384 39.9618 49.3836 39.9678 49.2141L39.9724 48.6832C39.9724 48.5374 39.9678 48.4095 39.9588 48.2994C39.9498 48.1894 39.9348 48.0718 39.9138 47.9469L39.4314 47.8488V47.5185L40.7791 47.1884L40.982 47.3133C40.9699 47.468 40.9594 47.6227 40.9504 47.7774C40.9414 47.932 40.9369 48.106 40.9369 48.2994V49.2141C40.9369 49.3687 40.9399 49.5175 40.9459 49.6602C40.9549 49.803 40.9654 49.8922 40.9774 49.928L41.4552 50.0396L41.4372 50.383H39.4721ZM40.4726 46.6307C40.2713 46.6307 40.1136 46.5712 39.9994 46.4521C39.8851 46.3303 39.8281 46.1905 39.8281 46.0327C39.8281 45.8721 39.8851 45.7323 39.9994 45.6134C40.1136 45.4944 40.2713 45.4349 40.4726 45.4349C40.6739 45.4349 40.8286 45.4944 40.9369 45.6134C41.045 45.7323 41.0991 45.8721 41.0991 46.0327C41.0991 46.1905 41.045 46.3303 40.9369 46.4521C40.8286 46.5712 40.6739 46.6307 40.4726 46.6307ZM41.4869 50.383L41.4644 50.0529L41.9106 49.928C41.9166 49.8953 41.9226 49.8104 41.9286 49.6736C41.9376 49.5338 41.9436 49.3806 41.9467 49.2141L41.9557 48.6697C41.9557 48.521 41.9512 48.3946 41.9421 48.2905C41.9331 48.1864 41.9181 48.0718 41.8971 47.9469L41.4328 47.8488V47.5185L42.7264 47.1884L42.9292 47.3133L42.8887 47.7416L42.9112 47.7505C43.2087 47.3668 43.5648 47.1749 43.9794 47.1749C44.2919 47.1749 44.5519 47.288 44.7592 47.5141C44.9664 47.7401 45.0702 48.057 45.0702 48.4644V49.2052C45.0702 49.3658 45.0732 49.5175 45.0792 49.6602C45.0852 49.8 45.0942 49.8893 45.1062 49.928L45.5525 50.0529L45.5299 50.383H43.6955L43.6775 50.0529L44.0786 49.928C44.0876 49.8566 44.0951 49.751 44.1011 49.6112C44.1102 49.4685 44.1147 49.3346 44.1147 49.2096V48.6207C44.1147 48.35 44.0546 48.1566 43.9343 48.0407C43.8171 47.9216 43.679 47.8621 43.5196 47.8621C43.2793 47.8621 43.0779 47.9632 42.9157 48.1655V49.2141C42.9157 49.3717 42.9187 49.5204 42.9247 49.6602C42.9307 49.8 42.9397 49.8893 42.9517 49.928L43.3844 50.0529L43.3619 50.383H41.4869Z" fill="black"/>
</g>
<defs>
<clipPath id="clip0_259_577">
<rect width="48" height="53" fill="white"/>
</clipPath>
</defs>
</svg>
